# Blender 3.3.1
# www.blender.org
mtllib circle_hole.mtl
o Cylinder.001
v 0.000000 -0.042727 -1.000000
v 0.000000 -0.042727 -0.809029
v 0.000000 0.042727 -1.000000
v 0.000000 0.042727 -0.809029
v 0.049068 -0.042727 -0.998795
v 0.039697 -0.042727 -0.808054
v 0.049068 0.042727 -0.998795
v 0.039697 0.042727 -0.808054
v 0.098017 -0.042727 -0.995185
v 0.079299 -0.042727 -0.805133
v 0.098017 0.042727 -0.995185
v 0.079299 0.042727 -0.805133
v 0.146730 -0.042727 -0.989177
v 0.118709 -0.042727 -0.800272
v 0.146730 0.042727 -0.989177
v 0.118709 0.042727 -0.800272
v 0.195090 -0.042727 -0.980785
v 0.157834 -0.042727 -0.793483
v 0.157834 0.042727 -0.793483
v 0.195090 0.042727 -0.980785
v 0.242980 -0.042727 -0.970031
v 0.196578 -0.042727 -0.784783
v 0.242980 0.042727 -0.970031
v 0.196578 0.042727 -0.784783
v 0.290285 -0.042727 -0.956940
v 0.234849 -0.042727 -0.774192
v 0.290285 0.042727 -0.956940
v 0.234849 0.042727 -0.774192
v 0.272554 -0.042727 -0.761736
v 0.336890 -0.042727 -0.941544
v 0.272554 0.042727 -0.761736
v 0.336890 0.042727 -0.941544
v 0.309602 -0.042727 -0.747445
v 0.382683 -0.042727 -0.923880
v 0.309602 0.042727 -0.747445
v 0.382683 0.042727 -0.923880
v 0.345904 -0.042727 -0.731353
v 0.427555 -0.042727 -0.903989
v 0.345904 0.042727 -0.731353
v 0.427555 0.042727 -0.903989
v 0.381373 -0.042727 -0.713499
v 0.471397 -0.042727 -0.881921
v 0.381373 0.042727 -0.713499
v 0.471397 0.042727 -0.881921
v 0.415924 -0.042727 -0.693927
v 0.514103 -0.042727 -0.857729
v 0.415924 0.042727 -0.693927
v 0.514103 0.042727 -0.857729
v 0.449472 -0.042727 -0.672683
v 0.555570 -0.042727 -0.831470
v 0.449472 0.042727 -0.672683
v 0.555570 0.042727 -0.831470
v 0.595699 -0.042727 -0.803208
v 0.481938 -0.042727 -0.649818
v 0.481938 0.042727 -0.649818
v 0.595699 0.042727 -0.803208
v 0.634393 -0.042727 -0.773010
v 0.513242 -0.042727 -0.625388
v 0.634393 0.042727 -0.773010
v 0.513242 0.042727 -0.625388
v 0.671559 -0.042727 -0.740951
v 0.543310 -0.042727 -0.599451
v 0.543310 0.042727 -0.599451
v 0.671559 0.042727 -0.740951
v 0.707107 -0.042727 -0.707107
v 0.572070 -0.042727 -0.572070
v 0.572070 0.042727 -0.572070
v 0.707107 0.042727 -0.707107
v 0.599451 -0.042727 -0.543310
v 0.740951 -0.042727 -0.671559
v 0.599451 0.042727 -0.543310
v 0.740951 0.042727 -0.671559
v 0.625388 -0.042727 -0.513242
v 0.773010 -0.042727 -0.634393
v 0.625388 0.042727 -0.513242
v 0.773010 0.042727 -0.634393
v 0.649818 -0.042727 -0.481938
v 0.803208 -0.042727 -0.595699
v 0.649818 0.042727 -0.481938
v 0.803208 0.042727 -0.595699
v 0.672683 -0.042727 -0.449472
v 0.831470 -0.042727 -0.555570
v 0.672683 0.042727 -0.449472
v 0.831470 0.042727 -0.555570
v 0.693927 -0.042727 -0.415924
v 0.857729 -0.042727 -0.514103
v 0.693927 0.042727 -0.415924
v 0.857729 0.042727 -0.514103
v 0.713499 -0.042727 -0.381373
v 0.881921 -0.042727 -0.471397
v 0.713499 0.042727 -0.381373
v 0.881921 0.042727 -0.471397
v 0.731353 -0.042727 -0.345904
v 0.903989 -0.042727 -0.427555
v 0.731353 0.042727 -0.345904
v 0.903989 0.042727 -0.427555
v 0.747445 -0.042727 -0.309602
v 0.923880 -0.042727 -0.382683
v 0.747445 0.042727 -0.309602
v 0.923880 0.042727 -0.382683
v 0.761736 -0.042727 -0.272554
v 0.941544 -0.042727 -0.336890
v 0.761736 0.042727 -0.272554
v 0.941544 0.042727 -0.336890
v 0.774192 -0.042727 -0.234849
v 0.956940 -0.042727 -0.290285
v 0.774192 0.042727 -0.234849
v 0.956940 0.042727 -0.290285
v 0.970031 -0.042727 -0.242980
v 0.784783 -0.042727 -0.196578
v 0.970031 0.042727 -0.242980
v 0.784783 0.042727 -0.196578
v 0.980785 -0.042727 -0.195090
v 0.793483 -0.042727 -0.157834
v 0.980785 0.042727 -0.195090
v 0.793483 0.042727 -0.157834
v 0.989177 -0.042727 -0.146730
v 0.800272 -0.042727 -0.118709
v 0.989177 0.042727 -0.146730
v 0.800272 0.042727 -0.118709
v 0.995185 -0.042727 -0.098017
v 0.805133 -0.042727 -0.079299
v 0.995185 0.042727 -0.098017
v 0.805133 0.042727 -0.079299
v 0.998795 -0.042727 -0.049068
v 0.808054 -0.042727 -0.039697
v 0.998795 0.042727 -0.049068
v 0.808054 0.042727 -0.039697
v 0.809029 -0.042727 0.000000
v 1.000000 -0.042727 0.000000
v 0.809029 0.042727 0.000000
v 1.000000 0.042727 0.000000
v 0.808054 -0.042727 0.039697
v 0.998795 -0.042727 0.049068
v 0.808054 0.042727 0.039697
v 0.998795 0.042727 0.049068
v 0.805133 -0.042727 0.079299
v 0.995185 -0.042727 0.098017
v 0.805133 0.042727 0.079299
v 0.995185 0.042727 0.098017
v 0.800272 -0.042727 0.118709
v 0.989177 -0.042727 0.146730
v 0.800272 0.042727 0.118709
v 0.989177 0.042727 0.146730
v 0.793483 -0.042727 0.157834
v 0.980785 -0.042727 0.195090
v 0.793483 0.042727 0.157834
v 0.980785 0.042727 0.195090
v 0.784783 -0.042727 0.196578
v 0.970031 -0.042727 0.242980
v 0.970031 0.042727 0.242980
v 0.784783 0.042727 0.196578
v 0.774192 -0.042727 0.234849
v 0.956940 -0.042727 0.290285
v 0.774192 0.042727 0.234849
v 0.956940 0.042727 0.290285
v 0.761736 -0.042727 0.272554
v 0.941544 -0.042727 0.336890
v 0.761736 0.042727 0.272554
v 0.941544 0.042727 0.336890
v 0.747445 -0.042727 0.309602
v 0.923880 -0.042727 0.382683
v 0.747445 0.042727 0.309602
v 0.923880 0.042727 0.382683
v 0.903989 -0.042727 0.427555
v 0.731353 -0.042727 0.345904
v 0.731353 0.042727 0.345904
v 0.903989 0.042727 0.427555
v 0.881921 -0.042727 0.471397
v 0.713499 -0.042727 0.381373
v 0.881921 0.042727 0.471397
v 0.713499 0.042727 0.381373
v 0.857729 -0.042727 0.514103
v 0.693927 -0.042727 0.415924
v 0.693927 0.042727 0.415924
v 0.857729 0.042727 0.514103
v 0.831470 -0.042727 0.555570
v 0.672683 -0.042727 0.449472
v 0.831470 0.042727 0.555570
v 0.672683 0.042727 0.449472
v 0.803208 -0.042727 0.595699
v 0.649818 -0.042727 0.481938
v 0.803208 0.042727 0.595699
v 0.649818 0.042727 0.481938
v 0.773010 -0.042727 0.634393
v 0.625388 -0.042727 0.513242
v 0.625388 0.042727 0.513242
v 0.773010 0.042727 0.634393
v 0.740951 -0.042727 0.671559
v 0.599451 -0.042727 0.543310
v 0.740951 0.042727 0.671559
v 0.599451 0.042727 0.543310
v 0.707107 -0.042727 0.707107
v 0.572070 -0.042727 0.572070
v 0.707107 0.042727 0.707107
v 0.572070 0.042727 0.572070
v 0.671559 -0.042727 0.740951
v 0.543310 -0.042727 0.599451
v 0.671559 0.042727 0.740951
v 0.543310 0.042727 0.599451
v 0.634393 -0.042727 0.773010
v 0.513242 -0.042727 0.625388
v 0.513242 0.042727 0.625388
v 0.634393 0.042727 0.773010
v 0.595699 -0.042727 0.803208
v 0.481938 -0.042727 0.649818
v 0.595699 0.042727 0.803208
v 0.481938 0.042727 0.649818
v 0.449472 -0.042727 0.672683
v 0.555570 -0.042727 0.831470
v 0.555570 0.042727 0.831470
v 0.449472 0.042727 0.672683
v 0.415924 -0.042727 0.693927
v 0.514103 -0.042727 0.857729
v 0.514103 0.042727 0.857729
v 0.415924 0.042727 0.693927
v 0.381373 -0.042727 0.713499
v 0.471397 -0.042727 0.881921
v 0.471397 0.042727 0.881921
v 0.381373 0.042727 0.713499
v 0.345904 -0.042727 0.731353
v 0.427555 -0.042727 0.903989
v 0.427555 0.042727 0.903989
v 0.345904 0.042727 0.731353
v 0.382683 -0.042727 0.923880
v 0.309602 -0.042727 0.747445
v 0.382683 0.042727 0.923880
v 0.309602 0.042727 0.747445
v 0.336890 -0.042727 0.941544
v 0.272554 -0.042727 0.761736
v 0.336890 0.042727 0.941544
v 0.272554 0.042727 0.761736
v 0.290285 -0.042727 0.956940
v 0.234849 -0.042727 0.774192
v 0.290285 0.042727 0.956940
v 0.234849 0.042727 0.774192
v 0.196578 -0.042727 0.784783
v 0.242980 -0.042727 0.970031
v 0.242980 0.042727 0.970031
v 0.196578 0.042727 0.784783
v 0.157834 -0.042727 0.793483
v 0.195090 -0.042727 0.980785
v 0.157834 0.042727 0.793483
v 0.195090 0.042727 0.980785
v 0.146730 -0.042727 0.989177
v 0.118709 -0.042727 0.800272
v 0.146730 0.042727 0.989177
v 0.118709 0.042727 0.800272
v 0.098017 -0.042727 0.995185
v 0.079299 -0.042727 0.805133
v 0.079299 0.042727 0.805133
v 0.098017 0.042727 0.995185
v 0.039697 -0.042727 0.808054
v 0.049068 -0.042727 0.998795
v 0.039697 0.042727 0.808054
v 0.049068 0.042727 0.998795
v 0.000000 -0.042727 0.809029
v 0.000000 -0.042727 1.000000
v 0.000000 0.042727 0.809029
v 0.000000 0.042727 1.000000
v -0.049068 -0.042727 0.998795
v -0.039697 -0.042727 0.808054
v -0.039697 0.042727 0.808054
v -0.049068 0.042727 0.998795
v -0.098017 -0.042727 0.995185
v -0.079299 -0.042727 0.805133
v -0.098017 0.042727 0.995185
v -0.079299 0.042727 0.805133
v -0.146730 -0.042727 0.989177
v -0.118709 -0.042727 0.800272
v -0.146730 0.042727 0.989177
v -0.118709 0.042727 0.800272
v -0.195090 -0.042727 0.980785
v -0.157834 -0.042727 0.793483
v -0.195090 0.042727 0.980785
v -0.157834 0.042727 0.793483
v -0.196578 -0.042727 0.784783
v -0.242980 -0.042727 0.970031
v -0.242980 0.042727 0.970031
v -0.196578 0.042727 0.784783
v -0.234849 -0.042727 0.774192
v -0.290285 -0.042727 0.956940
v -0.234849 0.042727 0.774192
v -0.290285 0.042727 0.956940
v -0.272554 -0.042727 0.761736
v -0.336890 -0.042727 0.941544
v -0.272554 0.042727 0.761736
v -0.336890 0.042727 0.941544
v -0.309602 -0.042727 0.747445
v -0.382683 -0.042727 0.923880
v -0.382683 0.042727 0.923880
v -0.309602 0.042727 0.747445
v -0.427555 -0.042727 0.903989
v -0.345904 -0.042727 0.731353
v -0.427555 0.042727 0.903989
v -0.345904 0.042727 0.731353
v -0.471397 -0.042727 0.881921
v -0.381373 -0.042727 0.713499
v -0.471397 0.042727 0.881921
v -0.381373 0.042727 0.713499
v -0.514103 -0.042727 0.857729
v -0.415924 -0.042727 0.693927
v -0.514103 0.042727 0.857729
v -0.415924 0.042727 0.693927
v -0.555570 -0.042727 0.831470
v -0.449472 -0.042727 0.672683
v -0.555570 0.042727 0.831470
v -0.449472 0.042727 0.672683
v -0.595699 -0.042727 0.803208
v -0.481938 -0.042727 0.649818
v -0.595699 0.042727 0.803208
v -0.481938 0.042727 0.649818
v -0.634393 -0.042727 0.773010
v -0.513242 -0.042727 0.625388
v -0.634393 0.042727 0.773010
v -0.513242 0.042727 0.625388
v -0.543310 -0.042727 0.599451
v -0.671559 -0.042727 0.740951
v -0.543310 0.042727 0.599451
v -0.671559 0.042727 0.740951
v -0.572070 -0.042727 0.572070
v -0.707107 -0.042727 0.707107
v -0.707107 0.042727 0.707107
v -0.572070 0.042727 0.572070
v -0.599451 -0.042727 0.543310
v -0.740951 -0.042727 0.671559
v -0.599451 0.042727 0.543310
v -0.740951 0.042727 0.671559
v -0.773010 -0.042727 0.634393
v -0.625388 -0.042727 0.513242
v -0.625388 0.042727 0.513242
v -0.773010 0.042727 0.634393
v -0.649818 -0.042727 0.481938
v -0.803208 -0.042727 0.595699
v -0.803208 0.042727 0.595699
v -0.649818 0.042727 0.481938
v -0.831470 -0.042727 0.555570
v -0.672683 -0.042727 0.449472
v -0.672683 0.042727 0.449472
v -0.831470 0.042727 0.555570
v -0.857729 -0.042727 0.514103
v -0.693927 -0.042727 0.415924
v -0.693927 0.042727 0.415924
v -0.857729 0.042727 0.514103
v -0.881921 -0.042727 0.471397
v -0.713499 -0.042727 0.381373
v -0.713499 0.042727 0.381373
v -0.881921 0.042727 0.471397
v -0.903989 -0.042727 0.427555
v -0.731353 -0.042727 0.345904
v -0.903989 0.042727 0.427555
v -0.731353 0.042727 0.345904
v -0.923880 -0.042727 0.382683
v -0.747445 -0.042727 0.309602
v -0.747445 0.042727 0.309602
v -0.923880 0.042727 0.382683
v -0.941544 -0.042727 0.336890
v -0.761736 -0.042727 0.272554
v -0.761736 0.042727 0.272554
v -0.941544 0.042727 0.336890
v -0.956940 -0.042727 0.290285
v -0.774192 -0.042727 0.234849
v -0.956940 0.042727 0.290285
v -0.774192 0.042727 0.234849
v -0.784783 -0.042727 0.196578
v -0.970031 -0.042727 0.242980
v -0.784783 0.042727 0.196578
v -0.970031 0.042727 0.242980
v -0.980785 -0.042727 0.195090
v -0.793483 -0.042727 0.157834
v -0.980785 0.042727 0.195090
v -0.793483 0.042727 0.157834
v -0.989177 -0.042727 0.146730
v -0.800272 -0.042727 0.118709
v -0.989177 0.042727 0.146730
v -0.800272 0.042727 0.118709
v -0.805133 -0.042727 0.079299
v -0.995185 -0.042727 0.098017
v -0.995185 0.042727 0.098017
v -0.805133 0.042727 0.079299
v -0.808054 -0.042727 0.039697
v -0.998795 -0.042727 0.049068
v -0.998795 0.042727 0.049068
v -0.808054 0.042727 0.039697
v -0.809029 -0.042727 0.000000
v -1.000000 -0.042727 0.000000
v -0.809029 0.042727 0.000000
v -1.000000 0.042727 0.000000
v -0.808054 -0.042727 -0.039697
v -0.998795 -0.042727 -0.049068
v -0.998795 0.042727 -0.049068
v -0.808054 0.042727 -0.039697
v -0.995185 -0.042727 -0.098017
v -0.805133 -0.042727 -0.079299
v -0.805133 0.042727 -0.079299
v -0.995185 0.042727 -0.098017
v -0.800272 -0.042727 -0.118709
v -0.989177 -0.042727 -0.146730
v -0.989177 0.042727 -0.146730
v -0.800272 0.042727 -0.118709
v -0.793483 -0.042727 -0.157834
v -0.980785 -0.042727 -0.195090
v -0.980785 0.042727 -0.195090
v -0.793483 0.042727 -0.157834
v -0.784783 -0.042727 -0.196578
v -0.970031 -0.042727 -0.242980
v -0.784783 0.042727 -0.196578
v -0.970031 0.042727 -0.242980
v -0.774192 -0.042727 -0.234849
v -0.956940 -0.042727 -0.290285
v -0.774192 0.042727 -0.234849
v -0.956940 0.042727 -0.290285
v -0.761736 -0.042727 -0.272554
v -0.941544 -0.042727 -0.336890
v -0.761736 0.042727 -0.272554
v -0.941544 0.042727 -0.336890
v -0.747445 -0.042727 -0.309602
v -0.923880 -0.042727 -0.382683
v -0.747445 0.042727 -0.309602
v -0.923880 0.042727 -0.382683
v -0.731353 -0.042727 -0.345904
v -0.903989 -0.042727 -0.427555
v -0.731353 0.042727 -0.345904
v -0.903989 0.042727 -0.427555
v -0.713499 -0.042727 -0.381373
v -0.881921 -0.042727 -0.471397
v -0.713499 0.042727 -0.381373
v -0.881921 0.042727 -0.471397
v -0.693927 -0.042727 -0.415924
v -0.857729 -0.042727 -0.514103
v -0.693927 0.042727 -0.415924
v -0.857729 0.042727 -0.514103
v -0.672683 -0.042727 -0.449472
v -0.831470 -0.042727 -0.555570
v -0.672683 0.042727 -0.449472
v -0.831470 0.042727 -0.555570
v -0.803208 -0.042727 -0.595699
v -0.649818 -0.042727 -0.481938
v -0.649818 0.042727 -0.481938
v -0.803208 0.042727 -0.595699
v -0.625388 -0.042727 -0.513242
v -0.773010 -0.042727 -0.634393
v -0.625388 0.042727 -0.513242
v -0.773010 0.042727 -0.634393
v -0.599451 -0.042727 -0.543310
v -0.740951 -0.042727 -0.671559
v -0.740951 0.042727 -0.671559
v -0.599451 0.042727 -0.543310
v -0.572070 -0.042727 -0.572070
v -0.707107 -0.042727 -0.707107
v -0.572070 0.042727 -0.572070
v -0.707107 0.042727 -0.707107
v -0.543310 -0.042727 -0.599451
v -0.671559 -0.042727 -0.740951
v -0.543310 0.042727 -0.599451
v -0.671559 0.042727 -0.740951
v -0.513242 -0.042727 -0.625388
v -0.634393 -0.042727 -0.773010
v -0.634393 0.042727 -0.773010
v -0.513242 0.042727 -0.625388
v -0.481938 -0.042727 -0.649818
v -0.595699 -0.042727 -0.803208
v -0.481938 0.042727 -0.649818
v -0.595699 0.042727 -0.803208
v -0.555570 -0.042727 -0.831470
v -0.449472 -0.042727 -0.672683
v -0.449472 0.042727 -0.672683
v -0.555570 0.042727 -0.831470
v -0.514103 -0.042727 -0.857729
v -0.415924 -0.042727 -0.693927
v -0.415924 0.042727 -0.693927
v -0.514103 0.042727 -0.857729
v -0.381373 -0.042727 -0.713499
v -0.471397 -0.042727 -0.881921
v -0.381373 0.042727 -0.713499
v -0.471397 0.042727 -0.881921
v -0.427555 -0.042727 -0.903989
v -0.345904 -0.042727 -0.731353
v -0.427555 0.042727 -0.903989
v -0.345904 0.042727 -0.731353
v -0.382683 -0.042727 -0.923880
v -0.309602 -0.042727 -0.747445
v -0.382683 0.042727 -0.923880
v -0.309602 0.042727 -0.747445
v -0.336890 -0.042727 -0.941544
v -0.272554 -0.042727 -0.761736
v -0.336890 0.042727 -0.941544
v -0.272554 0.042727 -0.761736
v -0.290285 -0.042727 -0.956940
v -0.234849 -0.042727 -0.774192
v -0.290285 0.042727 -0.956940
v -0.234849 0.042727 -0.774192
v -0.242980 -0.042727 -0.970031
v -0.196578 -0.042727 -0.784783
v -0.242980 0.042727 -0.970031
v -0.196578 0.042727 -0.784783
v -0.157834 -0.042727 -0.793483
v -0.195090 -0.042727 -0.980785
v -0.195090 0.042727 -0.980785
v -0.157834 0.042727 -0.793483
v -0.146730 -0.042727 -0.989177
v -0.118709 -0.042727 -0.800272
v -0.118709 0.042727 -0.800272
v -0.146730 0.042727 -0.989177
v -0.079299 -0.042727 -0.805133
v -0.098017 -0.042727 -0.995185
v -0.098017 0.042727 -0.995185
v -0.079299 0.042727 -0.805133
v -0.049068 -0.042727 -0.998795
v -0.039697 -0.042727 -0.808054
v -0.049068 0.042727 -0.998795
v -0.039697 0.042727 -0.808054
vn 0.0245 -0.0000 -0.9997
vn 0.0736 -0.0000 -0.9973
vn 0.1224 -0.0000 -0.9925
vn 0.1710 -0.0000 -0.9853
vn 0.2191 -0.0000 -0.9757
vn 0.2667 -0.0000 -0.9638
vn 0.3137 -0.0000 -0.9495
vn 0.3599 -0.0000 -0.9330
vn 0.4052 -0.0000 -0.9142
vn 0.4496 -0.0000 -0.8932
vn 0.4929 -0.0000 -0.8701
vn 0.5350 -0.0000 -0.8449
vn 0.5758 -0.0000 -0.8176
vn 0.6152 -0.0000 -0.7883
vn 0.6532 -0.0000 -0.7572
vn 0.6895 -0.0000 -0.7242
vn 0.7242 -0.0000 -0.6895
vn 0.7572 -0.0000 -0.6532
vn 0.7883 -0.0000 -0.6152
vn 0.8176 -0.0000 -0.5758
vn 0.8449 -0.0000 -0.5350
vn 0.8701 -0.0000 -0.4929
vn 0.8932 -0.0000 -0.4496
vn 0.9142 -0.0000 -0.4052
vn 0.9330 -0.0000 -0.3599
vn 0.9495 -0.0000 -0.3137
vn 0.9638 -0.0000 -0.2667
vn 0.9757 -0.0000 -0.2191
vn 0.9853 -0.0000 -0.1710
vn 0.9925 -0.0000 -0.1224
vn 0.9973 -0.0000 -0.0736
vn 0.9997 -0.0000 -0.0245
vn 0.9997 -0.0000 0.0245
vn 0.9973 -0.0000 0.0736
vn 0.9925 -0.0000 0.1224
vn 0.9853 -0.0000 0.1710
vn 0.9757 -0.0000 0.2191
vn 0.9638 -0.0000 0.2667
vn 0.9495 -0.0000 0.3137
vn 0.9330 -0.0000 0.3599
vn 0.9142 -0.0000 0.4052
vn 0.8932 -0.0000 0.4496
vn 0.8701 -0.0000 0.4929
vn 0.8449 -0.0000 0.5350
vn 0.8176 -0.0000 0.5758
vn 0.7883 -0.0000 0.6152
vn 0.7572 -0.0000 0.6532
vn 0.7242 -0.0000 0.6895
vn 0.6895 -0.0000 0.7242
vn 0.6532 -0.0000 0.7572
vn 0.6152 -0.0000 0.7883
vn 0.5758 -0.0000 0.8176
vn 0.5350 -0.0000 0.8449
vn 0.4929 -0.0000 0.8701
vn 0.4496 -0.0000 0.8932
vn 0.4052 -0.0000 0.9142
vn 0.3599 -0.0000 0.9330
vn 0.3137 -0.0000 0.9495
vn 0.2667 -0.0000 0.9638
vn 0.2191 -0.0000 0.9757
vn 0.1710 -0.0000 0.9853
vn 0.1224 -0.0000 0.9925
vn 0.0736 -0.0000 0.9973
vn 0.0245 -0.0000 0.9997
vn -0.0245 -0.0000 0.9997
vn -0.0736 -0.0000 0.9973
vn -0.1224 -0.0000 0.9925
vn -0.1710 -0.0000 0.9853
vn -0.2191 -0.0000 0.9757
vn -0.2667 -0.0000 0.9638
vn -0.3137 -0.0000 0.9495
vn -0.3599 -0.0000 0.9330
vn -0.4052 -0.0000 0.9142
vn -0.4496 -0.0000 0.8932
vn -0.4929 -0.0000 0.8701
vn -0.5350 -0.0000 0.8449
vn -0.5758 -0.0000 0.8176
vn -0.6152 -0.0000 0.7883
vn -0.6532 -0.0000 0.7572
vn -0.6895 -0.0000 0.7242
vn -0.7242 -0.0000 0.6895
vn -0.7572 -0.0000 0.6532
vn -0.7883 -0.0000 0.6152
vn -0.8176 -0.0000 0.5758
vn -0.8449 -0.0000 0.5350
vn -0.8701 -0.0000 0.4929
vn -0.8932 -0.0000 0.4496
vn -0.9142 -0.0000 0.4052
vn -0.9330 -0.0000 0.3599
vn -0.9495 -0.0000 0.3137
vn -0.9638 -0.0000 0.2667
vn -0.9757 -0.0000 0.2191
vn -0.9853 -0.0000 0.1710
vn -0.9925 -0.0000 0.1224
vn -0.9973 -0.0000 0.0736
vn -0.9997 -0.0000 0.0245
vn -0.9997 -0.0000 -0.0245
vn -0.9973 -0.0000 -0.0736
vn -0.9925 -0.0000 -0.1224
vn -0.9853 -0.0000 -0.1710
vn -0.9757 -0.0000 -0.2191
vn -0.9638 -0.0000 -0.2667
vn -0.9495 -0.0000 -0.3137
vn -0.9330 -0.0000 -0.3599
vn -0.9142 -0.0000 -0.4052
vn -0.8932 -0.0000 -0.4496
vn -0.8701 -0.0000 -0.4929
vn -0.8449 -0.0000 -0.5350
vn -0.8176 -0.0000 -0.5758
vn -0.7883 -0.0000 -0.6152
vn -0.7572 -0.0000 -0.6532
vn -0.7242 -0.0000 -0.6895
vn -0.6895 -0.0000 -0.7242
vn -0.6532 -0.0000 -0.7572
vn -0.6152 -0.0000 -0.7883
vn -0.5758 -0.0000 -0.8176
vn -0.5350 -0.0000 -0.8449
vn -0.4929 -0.0000 -0.8701
vn -0.4496 -0.0000 -0.8932
vn -0.4052 -0.0000 -0.9142
vn -0.3599 -0.0000 -0.9330
vn -0.3137 -0.0000 -0.9495
vn -0.2667 -0.0000 -0.9638
vn -0.2191 -0.0000 -0.9757
vn -0.1710 -0.0000 -0.9853
vn -0.1224 -0.0000 -0.9925
vn -0.0000 1.0000 -0.0000
vn -0.0736 -0.0000 -0.9973
vn -0.0245 -0.0000 -0.9997
vn -0.0000 -1.0000 -0.0000
vt 1.000000 0.500000
vt 0.000000 0.500000
vt 0.750000 0.490000
vt 0.750000 0.444167
vt 1.000000 0.500000
vt 0.000000 0.500000
vt 1.000000 1.000000
vt 0.250000 0.490000
vt 0.000000 1.000000
vt 0.250000 0.444167
vt 1.000000 1.000000
vt 0.000000 1.000000
vt 0.992188 0.500000
vt 0.761776 0.489711
vt 0.759528 0.443933
vt 0.992188 0.500000
vt 0.992188 1.000000
vt 0.261776 0.489711
vt 0.259527 0.443933
vt 0.992188 1.000000
vt 0.984375 0.500000
vt 0.773524 0.488844
vt 0.769032 0.443232
vt 0.984375 0.500000
vt 0.984375 1.000000
vt 0.273524 0.488844
vt 0.269032 0.443232
vt 0.984375 1.000000
vt 0.976562 0.500000
vt 0.785215 0.487402
vt 0.778491 0.442065
vt 0.976562 0.500000
vt 0.976562 1.000000
vt 0.285215 0.487402
vt 0.278490 0.442065
vt 0.976562 1.000000
vt 0.968750 0.500000
vt 0.796822 0.485388
vt 0.787880 0.440436
vt 0.968750 0.500000
vt 0.287880 0.440436
vt 0.968750 1.000000
vt 0.968750 1.000000
vt 0.296822 0.485388
vt 0.960938 0.500000
vt 0.808315 0.482808
vt 0.797179 0.438348
vt 0.960938 0.500000
vt 0.960938 1.000000
vt 0.308315 0.482808
vt 0.297179 0.438348
vt 0.960938 1.000000
vt 0.953125 0.500000
vt 0.819668 0.479666
vt 0.806364 0.435806
vt 0.953125 0.500000
vt 0.953125 1.000000
vt 0.319668 0.479666
vt 0.306364 0.435806
vt 0.953125 1.000000
vt 0.815413 0.432817
vt 0.945312 0.500000
vt 0.945312 0.500000
vt 0.830854 0.475971
vt 0.315413 0.432817
vt 0.945312 1.000000
vt 0.945312 1.000000
vt 0.330854 0.475971
vt 0.824305 0.429387
vt 0.937500 0.500000
vt 0.937500 0.500000
vt 0.841844 0.471731
vt 0.324304 0.429387
vt 0.937500 1.000000
vt 0.937500 1.000000
vt 0.341844 0.471731
vt 0.833017 0.425525
vt 0.929688 0.500000
vt 0.929688 0.500000
vt 0.852613 0.466957
vt 0.333017 0.425525
vt 0.929688 1.000000
vt 0.929688 1.000000
vt 0.352613 0.466957
vt 0.841530 0.421240
vt 0.921875 0.500000
vt 0.921875 0.500000
vt 0.863135 0.461661
vt 0.341530 0.421240
vt 0.921875 1.000000
vt 0.921875 1.000000
vt 0.363135 0.461661
vt 0.849822 0.416542
vt 0.914062 0.500000
vt 0.914062 0.500000
vt 0.873385 0.455855
vt 0.349822 0.416543
vt 0.914062 1.000000
vt 0.914062 1.000000
vt 0.373385 0.455855
vt 0.857873 0.411444
vt 0.906250 0.500000
vt 0.906250 0.500000
vt 0.883337 0.449553
vt 0.357873 0.411444
vt 0.906250 1.000000
vt 0.906250 1.000000
vt 0.383337 0.449553
vt 0.898438 0.500000
vt 0.892968 0.442770
vt 0.865665 0.405956
vt 0.898438 0.500000
vt 0.365665 0.405956
vt 0.898438 1.000000
vt 0.898438 1.000000
vt 0.392968 0.442770
vt 0.890625 0.500000
vt 0.902254 0.435522
vt 0.873178 0.400093
vt 0.890625 0.500000
vt 0.890625 1.000000
vt 0.402254 0.435522
vt 0.373178 0.400093
vt 0.890625 1.000000
vt 0.882812 0.500000
vt 0.911174 0.427828
vt 0.880395 0.393868
vt 0.882812 0.500000
vt 0.380394 0.393868
vt 0.882812 1.000000
vt 0.882812 1.000000
vt 0.411174 0.427828
vt 0.875000 0.500000
vt 0.919706 0.419706
vt 0.887297 0.387297
vt 0.875000 0.500000
vt 0.387297 0.387297
vt 0.875000 1.000000
vt 0.875000 1.000000
vt 0.419706 0.419706
vt 0.893868 0.380395
vt 0.867188 0.500000
vt 0.867188 0.500000
vt 0.927828 0.411174
vt 0.393868 0.380394
vt 0.867188 1.000000
vt 0.867188 1.000000
vt 0.427828 0.411174
vt 0.900093 0.373178
vt 0.859375 0.500000
vt 0.859375 0.500000
vt 0.935522 0.402254
vt 0.400093 0.373178
vt 0.859375 1.000000
vt 0.859375 1.000000
vt 0.435522 0.402254
vt 0.905956 0.365665
vt 0.851562 0.500000
vt 0.851562 0.500000
vt 0.942770 0.392968
vt 0.405956 0.365665
vt 0.851562 1.000000
vt 0.851562 1.000000
vt 0.442770 0.392968
vt 0.911444 0.357873
vt 0.843750 0.500000
vt 0.843750 0.500000
vt 0.949553 0.383337
vt 0.411444 0.357873
vt 0.843750 1.000000
vt 0.843750 1.000000
vt 0.449553 0.383337
vt 0.916542 0.349822
vt 0.835938 0.500000
vt 0.835938 0.500000
vt 0.955855 0.373385
vt 0.416542 0.349822
vt 0.835938 1.000000
vt 0.835938 1.000000
vt 0.455855 0.373385
vt 0.921240 0.341530
vt 0.828125 0.500000
vt 0.828125 0.500000
vt 0.961661 0.363135
vt 0.421240 0.341530
vt 0.828125 1.000000
vt 0.828125 1.000000
vt 0.461661 0.363135
vt 0.925525 0.333017
vt 0.820312 0.500000
vt 0.820312 0.500000
vt 0.966957 0.352613
vt 0.425525 0.333017
vt 0.820312 1.000000
vt 0.820312 1.000000
vt 0.466957 0.352613
vt 0.929387 0.324305
vt 0.812500 0.500000
vt 0.812500 0.500000
vt 0.971731 0.341844
vt 0.429387 0.324304
vt 0.812500 1.000000
vt 0.812500 1.000000
vt 0.471731 0.341844
vt 0.932817 0.315413
vt 0.804688 0.500000
vt 0.804688 0.500000
vt 0.975971 0.330854
vt 0.432817 0.315413
vt 0.804688 1.000000
vt 0.804688 1.000000
vt 0.475971 0.330854
vt 0.935806 0.306364
vt 0.796875 0.500000
vt 0.796875 0.500000
vt 0.979666 0.319668
vt 0.435806 0.306364
vt 0.796875 1.000000
vt 0.796875 1.000000
vt 0.479666 0.319668
vt 0.789062 0.500000
vt 0.982808 0.308315
vt 0.938348 0.297179
vt 0.789062 0.500000
vt 0.789062 1.000000
vt 0.482808 0.308315
vt 0.438348 0.297179
vt 0.789062 1.000000
vt 0.781250 0.500000
vt 0.985388 0.296822
vt 0.940436 0.287880
vt 0.781250 0.500000
vt 0.781250 1.000000
vt 0.485388 0.296822
vt 0.440436 0.287880
vt 0.781250 1.000000
vt 0.773438 0.500000
vt 0.987402 0.285215
vt 0.942065 0.278490
vt 0.773438 0.500000
vt 0.773438 1.000000
vt 0.487402 0.285215
vt 0.442065 0.278490
vt 0.773438 1.000000
vt 0.765625 0.500000
vt 0.988844 0.273524
vt 0.943232 0.269032
vt 0.765625 0.500000
vt 0.765625 1.000000
vt 0.488844 0.273524
vt 0.443232 0.269032
vt 0.765625 1.000000
vt 0.757812 0.500000
vt 0.989711 0.261776
vt 0.943933 0.259527
vt 0.757812 0.500000
vt 0.757812 1.000000
vt 0.489711 0.261776
vt 0.443933 0.259527
vt 0.757812 1.000000
vt 0.944167 0.250000
vt 0.750000 0.500000
vt 0.750000 0.500000
vt 0.990000 0.250000
vt 0.444167 0.250000
vt 0.750000 1.000000
vt 0.750000 1.000000
vt 0.490000 0.250000
vt 0.943933 0.240473
vt 0.742188 0.500000
vt 0.742188 0.500000
vt 0.989711 0.238224
vt 0.443933 0.240473
vt 0.742188 1.000000
vt 0.742188 1.000000
vt 0.489711 0.238224
vt 0.943232 0.230968
vt 0.734375 0.500000
vt 0.734375 0.500000
vt 0.988844 0.226476
vt 0.443232 0.230968
vt 0.734375 1.000000
vt 0.734375 1.000000
vt 0.488844 0.226476
vt 0.942065 0.221510
vt 0.726562 0.500000
vt 0.726562 0.500000
vt 0.987402 0.214785
vt 0.442065 0.221510
vt 0.726562 1.000000
vt 0.726562 1.000000
vt 0.487402 0.214785
vt 0.940436 0.212120
vt 0.718750 0.500000
vt 0.718750 0.500000
vt 0.985388 0.203178
vt 0.440436 0.212120
vt 0.718750 1.000000
vt 0.718750 1.000000
vt 0.485388 0.203178
vt 0.938347 0.202821
vt 0.710938 0.500000
vt 0.710938 0.500000
vt 0.982808 0.191685
vt 0.710938 1.000000
vt 0.482808 0.191685
vt 0.438348 0.202821
vt 0.710938 1.000000
vt 0.935806 0.193636
vt 0.703125 0.500000
vt 0.703125 0.500000
vt 0.979666 0.180332
vt 0.435806 0.193636
vt 0.703125 1.000000
vt 0.703125 1.000000
vt 0.479666 0.180332
vt 0.932817 0.184587
vt 0.695312 0.500000
vt 0.695312 0.500000
vt 0.975971 0.169146
vt 0.432817 0.184587
vt 0.695312 1.000000
vt 0.695312 1.000000
vt 0.475971 0.169146
vt 0.929387 0.175696
vt 0.687500 0.500000
vt 0.687500 0.500000
vt 0.971731 0.158156
vt 0.429387 0.175696
vt 0.687500 1.000000
vt 0.687500 1.000000
vt 0.471731 0.158156
vt 0.679688 0.500000
vt 0.966957 0.147387
vt 0.925525 0.166983
vt 0.679688 0.500000
vt 0.425525 0.166983
vt 0.679688 1.000000
vt 0.679688 1.000000
vt 0.466957 0.147387
vt 0.671875 0.500000
vt 0.961661 0.136865
vt 0.921240 0.158470
vt 0.671875 0.500000
vt 0.671875 1.000000
vt 0.461661 0.136865
vt 0.421240 0.158470
vt 0.671875 1.000000
vt 0.664062 0.500000
vt 0.955855 0.126615
vt 0.916542 0.150178
vt 0.664062 0.500000
vt 0.416543 0.150178
vt 0.664062 1.000000
vt 0.664062 1.000000
vt 0.455855 0.126615
vt 0.656250 0.500000
vt 0.949553 0.116663
vt 0.911444 0.142127
vt 0.656250 0.500000
vt 0.656250 1.000000
vt 0.449553 0.116663
vt 0.411444 0.142127
vt 0.656250 1.000000
vt 0.648438 0.500000
vt 0.942770 0.107032
vt 0.905956 0.134335
vt 0.648438 0.500000
vt 0.648438 1.000000
vt 0.442770 0.107032
vt 0.405956 0.134335
vt 0.648438 1.000000
vt 0.640625 0.500000
vt 0.935522 0.097746
vt 0.900093 0.126822
vt 0.640625 0.500000
vt 0.400093 0.126822
vt 0.640625 1.000000
vt 0.640625 1.000000
vt 0.435522 0.097746
vt 0.632812 0.500000
vt 0.927828 0.088826
vt 0.893868 0.119606
vt 0.632812 0.500000
vt 0.632812 1.000000
vt 0.427828 0.088826
vt 0.393868 0.119606
vt 0.632812 1.000000
vt 0.625000 0.500000
vt 0.919706 0.080294
vt 0.887297 0.112703
vt 0.625000 0.500000
vt 0.625000 1.000000
vt 0.419706 0.080294
vt 0.387297 0.112703
vt 0.625000 1.000000
vt 0.617188 0.500000
vt 0.911174 0.072172
vt 0.880395 0.106132
vt 0.617188 0.500000
vt 0.617188 1.000000
vt 0.411174 0.072172
vt 0.380394 0.106132
vt 0.617188 1.000000
vt 0.609375 0.500000
vt 0.902254 0.064478
vt 0.873178 0.099907
vt 0.609375 0.500000
vt 0.373178 0.099907
vt 0.609375 1.000000
vt 0.609375 1.000000
vt 0.402254 0.064478
vt 0.601562 0.500000
vt 0.892968 0.057230
vt 0.865665 0.094044
vt 0.601562 0.500000
vt 0.601562 1.000000
vt 0.392968 0.057230
vt 0.365665 0.094044
vt 0.601562 1.000000
vt 0.857873 0.088556
vt 0.593750 0.500000
vt 0.593750 0.500000
vt 0.883337 0.050447
vt 0.593750 1.000000
vt 0.383337 0.050447
vt 0.357873 0.088556
vt 0.593750 1.000000
vt 0.849822 0.083458
vt 0.585938 0.500000
vt 0.585938 0.500000
vt 0.873385 0.044145
vt 0.585938 1.000000
vt 0.373385 0.044145
vt 0.349822 0.083458
vt 0.585938 1.000000
vt 0.841529 0.078760
vt 0.578125 0.500000
vt 0.578125 0.500000
vt 0.863135 0.038339
vt 0.578125 1.000000
vt 0.363135 0.038339
vt 0.341530 0.078760
vt 0.578125 1.000000
vt 0.833017 0.074475
vt 0.570312 0.500000
vt 0.570312 0.500000
vt 0.852613 0.033043
vt 0.570312 1.000000
vt 0.352613 0.033043
vt 0.333017 0.074475
vt 0.570312 1.000000
vt 0.562500 0.500000
vt 0.841844 0.028269
vt 0.824305 0.070613
vt 0.562500 0.500000
vt 0.562500 1.000000
vt 0.341844 0.028269
vt 0.324305 0.070613
vt 0.562500 1.000000
vt 0.554688 0.500000
vt 0.830854 0.024029
vt 0.815413 0.067183
vt 0.554688 0.500000
vt 0.554688 1.000000
vt 0.330854 0.024029
vt 0.315413 0.067183
vt 0.554688 1.000000
vt 0.546875 0.500000
vt 0.819668 0.020334
vt 0.806364 0.064194
vt 0.546875 0.500000
vt 0.546875 1.000000
vt 0.319668 0.020334
vt 0.306364 0.064194
vt 0.546875 1.000000
vt 0.797179 0.061652
vt 0.539062 0.500000
vt 0.539062 0.500000
vt 0.808315 0.017192
vt 0.539062 1.000000
vt 0.308315 0.017192
vt 0.297179 0.061652
vt 0.539062 1.000000
vt 0.787880 0.059564
vt 0.531250 0.500000
vt 0.531250 0.500000
vt 0.796822 0.014612
vt 0.287880 0.059564
vt 0.531250 1.000000
vt 0.531250 1.000000
vt 0.296822 0.014612
vt 0.523438 0.500000
vt 0.785215 0.012598
vt 0.778490 0.057935
vt 0.523438 0.500000
vt 0.523438 1.000000
vt 0.285215 0.012598
vt 0.278490 0.057935
vt 0.523438 1.000000
vt 0.515625 0.500000
vt 0.773524 0.011156
vt 0.769032 0.056768
vt 0.515625 0.500000
vt 0.269032 0.056768
vt 0.515625 1.000000
vt 0.515625 1.000000
vt 0.273524 0.011156
vt 0.759528 0.056067
vt 0.507812 0.500000
vt 0.507812 0.500000
vt 0.761776 0.010289
vt 0.259527 0.056067
vt 0.507812 1.000000
vt 0.507812 1.000000
vt 0.261776 0.010289
vt 0.750000 0.055833
vt 0.500000 0.500000
vt 0.500000 0.500000
vt 0.750000 0.010000
vt 0.250000 0.055833
vt 0.500000 1.000000
vt 0.500000 1.000000
vt 0.250000 0.010000
vt 0.492188 0.500000
vt 0.738224 0.010289
vt 0.740473 0.056067
vt 0.492188 0.500000
vt 0.240473 0.056067
vt 0.492188 1.000000
vt 0.492188 1.000000
vt 0.238224 0.010289
vt 0.484375 0.500000
vt 0.726476 0.011156
vt 0.730968 0.056768
vt 0.484375 0.500000
vt 0.484375 1.000000
vt 0.226476 0.011156
vt 0.230968 0.056768
vt 0.484375 1.000000
vt 0.476562 0.500000
vt 0.714785 0.012598
vt 0.721510 0.057935
vt 0.476562 0.500000
vt 0.476562 1.000000
vt 0.214785 0.012598
vt 0.221510 0.057935
vt 0.476562 1.000000
vt 0.468750 0.500000
vt 0.703178 0.014612
vt 0.712120 0.059564
vt 0.468750 0.500000
vt 0.468750 1.000000
vt 0.203178 0.014612
vt 0.212120 0.059564
vt 0.468750 1.000000
vt 0.702821 0.061652
vt 0.460938 0.500000
vt 0.460938 0.500000
vt 0.691685 0.017192
vt 0.460938 1.000000
vt 0.191685 0.017192
vt 0.202821 0.061652
vt 0.460938 1.000000
vt 0.693636 0.064194
vt 0.453125 0.500000
vt 0.453125 0.500000
vt 0.680332 0.020334
vt 0.193636 0.064194
vt 0.453125 1.000000
vt 0.453125 1.000000
vt 0.180332 0.020334
vt 0.684587 0.067183
vt 0.445312 0.500000
vt 0.445312 0.500000
vt 0.669146 0.024029
vt 0.184587 0.067183
vt 0.445312 1.000000
vt 0.445312 1.000000
vt 0.169146 0.024029
vt 0.675696 0.070613
vt 0.437500 0.500000
vt 0.437500 0.500000
vt 0.658156 0.028269
vt 0.437500 1.000000
vt 0.158156 0.028269
vt 0.175696 0.070613
vt 0.437500 1.000000
vt 0.429688 0.500000
vt 0.647387 0.033043
vt 0.666983 0.074475
vt 0.429688 0.500000
vt 0.429688 1.000000
vt 0.147387 0.033043
vt 0.166983 0.074475
vt 0.429688 1.000000
vt 0.421875 0.500000
vt 0.636865 0.038339
vt 0.658470 0.078760
vt 0.421875 0.500000
vt 0.421875 1.000000
vt 0.136865 0.038339
vt 0.158470 0.078760
vt 0.421875 1.000000
vt 0.414062 0.500000
vt 0.626615 0.044145
vt 0.650178 0.083458
vt 0.414062 0.500000
vt 0.414062 1.000000
vt 0.126615 0.044145
vt 0.150178 0.083458
vt 0.414062 1.000000
vt 0.406250 0.500000
vt 0.616663 0.050447
vt 0.642127 0.088556
vt 0.406250 0.500000
vt 0.406250 1.000000
vt 0.116663 0.050447
vt 0.142127 0.088556
vt 0.406250 1.000000
vt 0.398438 0.500000
vt 0.607032 0.057230
vt 0.634335 0.094044
vt 0.398438 0.500000
vt 0.398438 1.000000
vt 0.107032 0.057230
vt 0.134335 0.094044
vt 0.398438 1.000000
vt 0.390625 0.500000
vt 0.597746 0.064478
vt 0.626822 0.099907
vt 0.390625 0.500000
vt 0.390625 1.000000
vt 0.097746 0.064478
vt 0.126822 0.099907
vt 0.390625 1.000000
vt 0.619606 0.106132
vt 0.382812 0.500000
vt 0.382812 0.500000
vt 0.588826 0.072172
vt 0.119606 0.106132
vt 0.382812 1.000000
vt 0.382812 1.000000
vt 0.088826 0.072172
vt 0.612703 0.112703
vt 0.375000 0.500000
vt 0.375000 0.500000
vt 0.580294 0.080294
vt 0.375000 1.000000
vt 0.080294 0.080294
vt 0.112703 0.112703
vt 0.375000 1.000000
vt 0.606132 0.119606
vt 0.367188 0.500000
vt 0.367188 0.500000
vt 0.572172 0.088826
vt 0.106132 0.119606
vt 0.367188 1.000000
vt 0.367188 1.000000
vt 0.072172 0.088826
vt 0.359375 0.500000
vt 0.564478 0.097746
vt 0.599907 0.126822
vt 0.359375 0.500000
vt 0.099907 0.126822
vt 0.359375 1.000000
vt 0.359375 1.000000
vt 0.064478 0.097746
vt 0.594044 0.134335
vt 0.351562 0.500000
vt 0.351562 0.500000
vt 0.557230 0.107032
vt 0.351562 1.000000
vt 0.057230 0.107032
vt 0.094044 0.134335
vt 0.351562 1.000000
vt 0.343750 0.500000
vt 0.550447 0.116663
vt 0.588556 0.142127
vt 0.343750 0.500000
vt 0.088556 0.142127
vt 0.343750 1.000000
vt 0.343750 1.000000
vt 0.050447 0.116663
vt 0.335938 0.500000
vt 0.544145 0.126615
vt 0.583458 0.150178
vt 0.335938 0.500000
vt 0.083458 0.150178
vt 0.335938 1.000000
vt 0.335938 1.000000
vt 0.044145 0.126615
vt 0.328125 0.500000
vt 0.538339 0.136865
vt 0.578760 0.158470
vt 0.328125 0.500000
vt 0.078760 0.158470
vt 0.328125 1.000000
vt 0.328125 1.000000
vt 0.038339 0.136865
vt 0.320312 0.500000
vt 0.533043 0.147387
vt 0.574475 0.166983
vt 0.320312 0.500000
vt 0.320312 1.000000
vt 0.033043 0.147387
vt 0.074475 0.166983
vt 0.320312 1.000000
vt 0.312500 0.500000
vt 0.528269 0.158156
vt 0.570613 0.175696
vt 0.312500 0.500000
vt 0.070613 0.175696
vt 0.312500 1.000000
vt 0.312500 1.000000
vt 0.028269 0.158156
vt 0.304688 0.500000
vt 0.524029 0.169146
vt 0.567183 0.184587
vt 0.304688 0.500000
vt 0.067183 0.184587
vt 0.304688 1.000000
vt 0.304688 1.000000
vt 0.024029 0.169146
vt 0.296875 0.500000
vt 0.520334 0.180332
vt 0.564194 0.193636
vt 0.296875 0.500000
vt 0.296875 1.000000
vt 0.020334 0.180332
vt 0.064194 0.193636
vt 0.296875 1.000000
vt 0.561652 0.202821
vt 0.289062 0.500000
vt 0.289062 0.500000
vt 0.517192 0.191685
vt 0.061652 0.202821
vt 0.289062 1.000000
vt 0.289062 1.000000
vt 0.017192 0.191685
vt 0.281250 0.500000
vt 0.514612 0.203178
vt 0.559564 0.212120
vt 0.281250 0.500000
vt 0.281250 1.000000
vt 0.014612 0.203178
vt 0.059564 0.212120
vt 0.281250 1.000000
vt 0.273438 0.500000
vt 0.512598 0.214785
vt 0.557935 0.221510
vt 0.273438 0.500000
vt 0.273438 1.000000
vt 0.012598 0.214785
vt 0.057935 0.221510
vt 0.273438 1.000000
vt 0.556768 0.230968
vt 0.265625 0.500000
vt 0.265625 0.500000
vt 0.511156 0.226476
vt 0.265625 1.000000
vt 0.011156 0.226476
vt 0.056768 0.230968
vt 0.265625 1.000000
vt 0.556067 0.240473
vt 0.257812 0.500000
vt 0.257812 0.500000
vt 0.510289 0.238224
vt 0.257812 1.000000
vt 0.010289 0.238224
vt 0.056067 0.240473
vt 0.257812 1.000000
vt 0.555833 0.250000
vt 0.250000 0.500000
vt 0.250000 0.500000
vt 0.510000 0.250000
vt 0.055833 0.250000
vt 0.250000 1.000000
vt 0.250000 1.000000
vt 0.010000 0.250000
vt 0.556067 0.259527
vt 0.242188 0.500000
vt 0.242188 0.500000
vt 0.510289 0.261776
vt 0.242188 1.000000
vt 0.010289 0.261776
vt 0.056067 0.259527
vt 0.242188 1.000000
vt 0.234375 0.500000
vt 0.511156 0.273524
vt 0.556768 0.269032
vt 0.234375 0.500000
vt 0.056768 0.269032
vt 0.234375 1.000000
vt 0.234375 1.000000
vt 0.011156 0.273524
vt 0.557935 0.278490
vt 0.226562 0.500000
vt 0.226562 0.500000
vt 0.512598 0.285215
vt 0.226562 1.000000
vt 0.012598 0.285215
vt 0.057935 0.278490
vt 0.226562 1.000000
vt 0.559564 0.287880
vt 0.218750 0.500000
vt 0.218750 0.500000
vt 0.514612 0.296822
vt 0.218750 1.000000
vt 0.014612 0.296822
vt 0.059564 0.287880
vt 0.218750 1.000000
vt 0.561652 0.297179
vt 0.210938 0.500000
vt 0.210938 0.500000
vt 0.517192 0.308315
vt 0.061652 0.297179
vt 0.210938 1.000000
vt 0.210938 1.000000
vt 0.017192 0.308315
vt 0.564194 0.306364
vt 0.203125 0.500000
vt 0.203125 0.500000
vt 0.520334 0.319668
vt 0.064194 0.306364
vt 0.203125 1.000000
vt 0.203125 1.000000
vt 0.020334 0.319668
vt 0.567183 0.315413
vt 0.195312 0.500000
vt 0.195312 0.500000
vt 0.524029 0.330854
vt 0.067183 0.315413
vt 0.195312 1.000000
vt 0.195312 1.000000
vt 0.024029 0.330854
vt 0.570613 0.324304
vt 0.187500 0.500000
vt 0.187500 0.500000
vt 0.528269 0.341844
vt 0.070613 0.324305
vt 0.187500 1.000000
vt 0.187500 1.000000
vt 0.028269 0.341844
vt 0.574475 0.333017
vt 0.179688 0.500000
vt 0.179688 0.500000
vt 0.533043 0.352613
vt 0.074475 0.333017
vt 0.179688 1.000000
vt 0.179688 1.000000
vt 0.033043 0.352613
vt 0.578760 0.341530
vt 0.171875 0.500000
vt 0.171875 0.500000
vt 0.538339 0.363135
vt 0.078760 0.341530
vt 0.171875 1.000000
vt 0.171875 1.000000
vt 0.038339 0.363135
vt 0.583458 0.349822
vt 0.164062 0.500000
vt 0.164062 0.500000
vt 0.544145 0.373385
vt 0.083458 0.349822
vt 0.164062 1.000000
vt 0.164062 1.000000
vt 0.044145 0.373385
vt 0.588556 0.357873
vt 0.156250 0.500000
vt 0.156250 0.500000
vt 0.550447 0.383337
vt 0.088556 0.357873
vt 0.156250 1.000000
vt 0.156250 1.000000
vt 0.050447 0.383337
vt 0.148438 0.500000
vt 0.557230 0.392968
vt 0.594044 0.365665
vt 0.148438 0.500000
vt 0.094044 0.365665
vt 0.148438 1.000000
vt 0.148438 1.000000
vt 0.057230 0.392968
vt 0.599907 0.373178
vt 0.140625 0.500000
vt 0.140625 0.500000
vt 0.564478 0.402254
vt 0.099907 0.373178
vt 0.140625 1.000000
vt 0.140625 1.000000
vt 0.064478 0.402254
vt 0.606132 0.380394
vt 0.132812 0.500000
vt 0.132812 0.500000
vt 0.572172 0.411174
vt 0.132812 1.000000
vt 0.072172 0.411174
vt 0.106132 0.380395
vt 0.132812 1.000000
vt 0.612703 0.387297
vt 0.125000 0.500000
vt 0.125000 0.500000
vt 0.580294 0.419706
vt 0.112703 0.387297
vt 0.125000 1.000000
vt 0.125000 1.000000
vt 0.080294 0.419706
vt 0.619606 0.393868
vt 0.117188 0.500000
vt 0.117188 0.500000
vt 0.588826 0.427828
vt 0.119606 0.393868
vt 0.117188 1.000000
vt 0.117188 1.000000
vt 0.088826 0.427828
vt 0.626822 0.400093
vt 0.109375 0.500000
vt 0.109375 0.500000
vt 0.597746 0.435522
vt 0.109375 1.000000
vt 0.097746 0.435522
vt 0.126822 0.400093
vt 0.109375 1.000000
vt 0.634335 0.405956
vt 0.101562 0.500000
vt 0.101562 0.500000
vt 0.607032 0.442770
vt 0.134335 0.405956
vt 0.101562 1.000000
vt 0.101562 1.000000
vt 0.107032 0.442770
vt 0.093750 0.500000
vt 0.616663 0.449553
vt 0.642127 0.411444
vt 0.093750 0.500000
vt 0.142127 0.411444
vt 0.093750 1.000000
vt 0.093750 1.000000
vt 0.116663 0.449553
vt 0.085938 0.500000
vt 0.626615 0.455855
vt 0.650178 0.416543
vt 0.085938 0.500000
vt 0.150178 0.416542
vt 0.085938 1.000000
vt 0.085938 1.000000
vt 0.126615 0.455855
vt 0.658470 0.421240
vt 0.078125 0.500000
vt 0.078125 0.500000
vt 0.636865 0.461661
vt 0.158470 0.421240
vt 0.078125 1.000000
vt 0.078125 1.000000
vt 0.136865 0.461661
vt 0.070312 0.500000
vt 0.647387 0.466957
vt 0.666983 0.425525
vt 0.070312 0.500000
vt 0.070312 1.000000
vt 0.147387 0.466957
vt 0.166983 0.425525
vt 0.070312 1.000000
vt 0.062500 0.500000
vt 0.658156 0.471731
vt 0.675695 0.429387
vt 0.062500 0.500000
vt 0.062500 1.000000
vt 0.158156 0.471731
vt 0.175696 0.429387
vt 0.062500 1.000000
vt 0.054688 0.500000
vt 0.669146 0.475971
vt 0.684587 0.432817
vt 0.054688 0.500000
vt 0.054688 1.000000
vt 0.169146 0.475971
vt 0.184587 0.432817
vt 0.054688 1.000000
vt 0.046875 0.500000
vt 0.680332 0.479666
vt 0.693636 0.435806
vt 0.046875 0.500000
vt 0.046875 1.000000
vt 0.180332 0.479666
vt 0.193636 0.435806
vt 0.046875 1.000000
vt 0.039062 0.500000
vt 0.691685 0.482808
vt 0.702821 0.438348
vt 0.039062 0.500000
vt 0.039062 1.000000
vt 0.191685 0.482808
vt 0.202821 0.438348
vt 0.039062 1.000000
vt 0.712120 0.440436
vt 0.031250 0.500000
vt 0.031250 0.500000
vt 0.703178 0.485388
vt 0.031250 1.000000
vt 0.203178 0.485388
vt 0.212120 0.440436
vt 0.031250 1.000000
vt 0.023438 0.500000
vt 0.714785 0.487402
vt 0.721510 0.442065
vt 0.023438 0.500000
vt 0.221510 0.442065
vt 0.023438 1.000000
vt 0.023438 1.000000
vt 0.214785 0.487402
vt 0.730968 0.443232
vt 0.015625 0.500000
vt 0.015625 0.500000
vt 0.726476 0.488844
vt 0.226476 0.488844
vt 0.015625 1.000000
vt 0.230968 0.443232
vt 0.015625 1.000000
vt 0.007812 0.500000
vt 0.738224 0.489711
vt 0.740473 0.443933
vt 0.007812 0.500000
vt 0.238224 0.489711
vt 0.007812 1.000000
vt 0.240473 0.443933
vt 0.007812 1.000000
s 0
usemtl Material.001
f 1/1/1 3/7/1 7/17/1 5/13/1
f 5/13/2 7/17/2 11/25/2 9/21/2
f 9/21/3 11/25/3 15/33/3 13/29/3
f 13/29/4 15/33/4 20/43/4 17/37/4
f 17/37/5 20/43/5 23/49/5 21/45/5
f 21/45/6 23/49/6 27/57/6 25/53/6
f 25/53/7 27/57/7 32/67/7 30/63/7
f 30/63/8 32/67/8 36/75/8 34/71/8
f 34/71/9 36/75/9 40/83/9 38/79/9
f 38/79/10 40/83/10 44/91/10 42/87/10
f 42/87/11 44/91/11 48/99/11 46/95/11
f 46/95/12 48/99/12 52/107/12 50/103/12
f 50/103/13 52/107/13 56/115/13 53/109/13
f 53/109/14 56/115/14 59/121/14 57/117/14
f 57/117/15 59/121/15 64/131/15 61/125/15
f 61/125/16 64/131/16 68/139/16 65/133/16
f 65/133/17 68/139/17 72/147/17 70/143/17
f 70/143/18 72/147/18 76/155/18 74/151/18
f 74/151/19 76/155/19 80/163/19 78/159/19
f 78/159/20 80/163/20 84/171/20 82/167/20
f 82/167/21 84/171/21 88/179/21 86/175/21
f 86/175/22 88/179/22 92/187/22 90/183/22
f 90/183/23 92/187/23 96/195/23 94/191/23
f 94/191/24 96/195/24 100/203/24 98/199/24
f 98/199/25 100/203/25 104/211/25 102/207/25
f 102/207/26 104/211/26 108/219/26 106/215/26
f 106/215/27 108/219/27 111/225/27 109/221/27
f 109/221/28 111/225/28 115/233/28 113/229/28
f 113/229/29 115/233/29 119/241/29 117/237/29
f 117/237/30 119/241/30 123/249/30 121/245/30
f 121/245/31 123/249/31 127/257/31 125/253/31
f 125/253/32 127/257/32 132/267/32 130/263/32
f 130/263/33 132/267/33 136/275/33 134/271/33
f 134/271/34 136/275/34 140/283/34 138/279/34
f 138/279/35 140/283/35 144/291/35 142/287/35
f 142/287/36 144/291/36 148/299/36 146/295/36
f 146/295/37 148/299/37 151/305/37 150/303/37
f 150/303/38 151/305/38 156/315/38 154/311/38
f 154/311/39 156/315/39 160/323/39 158/319/39
f 158/319/40 160/323/40 164/331/40 162/327/40
f 162/327/41 164/331/41 168/339/41 165/333/41
f 165/333/42 168/339/42 171/345/42 169/341/42
f 169/341/43 171/345/43 176/355/43 173/349/43
f 173/349/44 176/355/44 179/361/44 177/357/44
f 177/357/45 179/361/45 183/369/45 181/365/45
f 181/365/46 183/369/46 188/379/46 185/373/46
f 185/373/47 188/379/47 191/385/47 189/381/47
f 189/381/48 191/385/48 195/393/48 193/389/48
f 193/389/49 195/393/49 199/401/49 197/397/49
f 197/397/50 199/401/50 204/411/50 201/405/50
f 201/405/51 204/411/51 207/417/51 205/413/51
f 205/413/52 207/417/52 211/425/52 210/423/52
f 210/423/53 211/425/53 215/433/53 214/431/53
f 214/431/54 215/433/54 219/441/54 218/439/54
f 218/439/55 219/441/55 223/449/55 222/447/55
f 222/447/56 223/449/56 227/457/56 225/453/56
f 225/453/57 227/457/57 231/465/57 229/461/57
f 229/461/58 231/465/58 235/473/58 233/469/58
f 233/469/59 235/473/59 239/481/59 238/479/59
f 238/479/60 239/481/60 244/491/60 242/487/60
f 242/487/61 244/491/61 247/497/61 245/493/61
f 245/493/62 247/497/62 252/507/62 249/501/62
f 249/501/63 252/507/63 256/515/63 254/511/63
f 254/511/64 256/515/64 260/523/64 258/519/64
f 258/519/65 260/523/65 264/531/65 261/525/65
f 261/525/66 264/531/66 267/537/66 265/533/66
f 265/533/67 267/537/67 271/545/67 269/541/67
f 269/541/68 271/545/68 275/553/68 273/549/68
f 273/549/69 275/553/69 279/561/69 278/559/69
f 278/559/70 279/561/70 284/571/70 282/567/70
f 282/567/71 284/571/71 288/579/71 286/575/71
f 286/575/72 288/579/72 291/585/72 290/583/72
f 290/583/73 291/585/73 295/593/73 293/589/73
f 293/589/74 295/593/74 299/601/74 297/597/74
f 297/597/75 299/601/75 303/609/75 301/605/75
f 301/605/76 303/609/76 307/617/76 305/613/76
f 305/613/77 307/617/77 311/625/77 309/621/77
f 309/621/78 311/625/78 315/633/78 313/629/78
f 313/629/79 315/633/79 320/643/79 318/639/79
f 318/639/80 320/643/80 323/649/80 322/647/80
f 322/647/81 323/649/81 328/659/81 326/655/81
f 326/655/82 328/659/82 332/667/82 329/661/82
f 329/661/83 332/667/83 335/673/83 334/671/83
f 334/671/84 335/673/84 340/683/84 337/677/84
f 337/677/85 340/683/85 344/691/85 341/685/85
f 341/685/86 344/691/86 348/699/86 345/693/86
f 345/693/87 348/699/87 351/705/87 349/701/87
f 349/701/88 351/705/88 356/715/88 353/709/88
f 353/709/89 356/715/89 360/723/89 357/717/89
f 357/717/90 360/723/90 363/729/90 361/725/90
f 361/725/91 363/729/91 368/739/91 366/735/91
f 366/735/92 368/739/92 371/745/92 369/741/92
f 369/741/93 371/745/93 375/753/93 373/749/93
f 373/749/94 375/753/94 379/761/94 378/759/94
f 378/759/95 379/761/95 383/769/95 382/767/95
f 382/767/96 383/769/96 388/779/96 386/775/96
f 386/775/97 388/779/97 391/785/97 390/783/97
f 390/783/98 391/785/98 396/795/98 393/789/98
f 393/789/99 396/795/99 399/801/99 398/799/99
f 398/799/100 399/801/100 403/809/100 402/807/100
f 402/807/101 403/809/101 408/819/101 406/815/101
f 406/815/102 408/819/102 412/827/102 410/823/102
f 410/823/103 412/827/103 416/835/103 414/831/103
f 414/831/104 416/835/104 420/843/104 418/839/104
f 418/839/105 420/843/105 424/851/105 422/847/105
f 422/847/106 424/851/106 428/859/106 426/855/106
f 426/855/107 428/859/107 432/867/107 430/863/107
f 430/863/108 432/867/108 436/875/108 434/871/108
f 434/871/109 436/875/109 440/883/109 437/877/109
f 437/877/110 440/883/110 444/891/110 442/887/110
f 442/887/111 444/891/111 447/897/111 446/895/111
f 446/895/112 447/897/112 452/907/112 450/903/112
f 450/903/113 452/907/113 456/915/113 454/911/113
f 454/911/114 456/915/114 459/921/114 458/919/114
f 458/919/115 459/921/115 464/931/115 462/927/115
f 462/927/116 464/931/116 468/939/116 465/933/116
f 465/933/117 468/939/117 472/947/117 469/941/117
f 469/941/118 472/947/118 476/955/118 474/951/118
f 474/951/119 476/955/119 479/961/119 477/957/119
f 477/957/120 479/961/120 483/969/120 481/965/120
f 481/965/121 483/969/121 487/977/121 485/973/121
f 485/973/122 487/977/122 491/985/122 489/981/122
f 489/981/123 491/985/123 495/993/123 493/989/123
f 493/989/124 495/993/124 499/1001/124 498/999/124
f 498/999/125 499/1001/125 504/1011/125 501/1005/125
f 501/1005/126 504/1011/126 507/1018/126 506/1015/126
f 204/412/127 199/402/127 195/394/127 191/386/127 188/380/127 183/370/127 179/362/127 176/356/127 171/346/127 168/340/127 164/332/127 160/324/127 156/316/127 151/306/127 148/300/127 144/292/127 140/284/127 136/276/127 132/268/127 127/258/127 123/250/127 119/242/127 115/234/127 111/226/127 108/220/127 104/212/127 100/204/127 96/196/127 92/188/127 88/180/127 84/172/127 80/164/127 76/156/127 75/153/127 79/161/127 83/169/127 87/177/127 91/185/127 95/193/127 99/201/127 103/209/127 107/217/127 112/227/127 116/235/127 120/243/127 124/251/127 128/259/127 131/265/127 135/273/127 139/281/127 143/289/127 147/297/127 152/307/127 155/313/127 159/321/127 163/329/127 167/337/127 172/347/127 175/353/127 180/363/127 184/371/127 187/377/127 192/387/127 196/395/127 200/403/127 203/409/127
f 72/148/127 68/140/127 64/132/127 59/122/127 56/116/127 52/108/127 48/100/127 44/92/127 40/84/127 36/76/127 32/68/127 27/58/127 23/50/127 20/44/127 15/34/127 11/26/127 7/18/127 3/8/127 511/1025/127 507/1017/127 504/1012/127 499/1002/127 495/994/127 491/986/127 487/978/127 483/970/127 479/962/127 476/956/127 472/948/127 468/940/127 464/932/127 459/922/127 456/916/127 452/908/127 447/898/127 444/892/127 440/884/127 436/876/127 432/868/127 428/860/127 424/852/127 420/844/127 416/836/127 412/828/127 408/820/127 403/810/127 399/802/127 396/796/127 391/786/127 388/780/127 383/770/127 379/762/127 375/754/127 371/746/127 368/740/127 363/730/127 360/724/127 356/716/127 351/706/127 348/700/127 344/692/127 340/684/127 335/674/127 332/668/127 328/660/127 323/650/127 320/644/127 315/634/127 311/626/127 307/618/127 303/610/127 299/602/127 295/594/127 291/586/127 288/580/127 284/572/127 279/562/127 275/554/127 271/546/127 267/538/127 264/532/127 260/524/127 256/516/127 252/508/127 247/498/127 244/492/127 239/482/127 235/474/127 231/466/127 227/458/127 223/450/127 219/442/127 215/434/127 211/426/127 207/418/127 204/412/127 203/409/127 208/419/127 212/427/127 216/435/127 220/443/127 224/451/127 228/459/127 232/467/127 236/475/127 240/483/127 243/489/127 248/499/127 251/505/127 255/513/127 259/521/127 263/529/127 268/539/127 272/547/127 276/555/127 280/563/127 283/569/127 287/577/127 292/587/127 296/595/127 300/603/127 304/611/127 308/619/127 312/627/127 316/635/127 319/641/127 324/651/127 327/657/127 331/665/127 336/675/127 339/681/127 343/689/127 347/697/127 352/707/127 355/713/127 359/721/127 364/731/127 367/737/127 372/747/127 376/755/127 380/763/127 384/771/127 387/777/127 392/787/127 395/793/127 400/803/127 404/811/127 407/817/127 411/825/127 415/833/127 419/841/127 423/849/127 427/857/127 431/865/127 435/873/127 439/881/127 443/889/127 448/899/127 451/905/127 455/913/127 460/923/127 463/929/127 467/937/127 471/945/127 475/953/127 480/963/127 484/971/127 488/979/127 492/987/127 496/995/127 500/1003/127 503/1009/127 508/1019/127 512/1027/127 4/10/127 8/19/127 12/27/127 16/35/127 19/41/127 24/51/127 28/59/127 31/65/127 35/73/127 39/81/127 43/89/127 47/97/127 51/105/127 55/113/127 60/123/127 63/129/127 67/137/127 71/145/127 75/153/127 76/156/127
f 506/1015/128 507/1018/128 511/1026/128 509/1021/128
f 509/1021/129 511/1026/129 3/9/129 1/2/129
f 509/1022/130 1/3/130 5/14/130 9/22/130 13/30/130 17/38/130 21/46/130 25/54/130 30/64/130 34/72/130 38/80/130 42/88/130 46/96/130 50/104/130 53/110/130 57/118/130 61/126/130 62/127/130 58/119/130 54/111/130 49/101/130 45/93/130 41/85/130 37/77/130 33/69/130 29/61/130 26/55/130 22/47/130 18/39/130 14/31/130 10/23/130 6/15/130 2/4/130 510/1023/130 505/1013/130 502/1007/130 497/997/130 494/991/130 490/983/130 486/975/130 482/967/130 478/959/130 473/949/130 470/943/130 466/935/130 461/925/130 457/917/130 453/909/130 449/901/130 445/893/130 441/885/130 438/879/130 433/869/130 429/861/130 425/853/130 421/845/130 417/837/130 413/829/130 409/821/130 405/813/130 401/805/130 397/797/130 394/791/130 389/781/130 385/773/130 381/765/130 377/757/130 374/751/130 370/743/130 365/733/130 362/727/130 358/719/130 354/711/130 350/703/130 346/695/130 342/687/130 338/679/130 333/669/130 330/663/130 325/653/130 321/645/130 317/637/130 314/631/130 310/623/130 306/615/130 302/607/130 298/599/130 294/591/130 289/581/130 285/573/130 281/565/130 277/557/130 274/551/130 270/543/130 266/535/130 262/527/130 257/517/130 253/509/130 250/503/130 246/495/130 241/485/130 237/477/130 234/471/130 230/463/130 226/455/130 221/445/130 217/437/130 213/429/130 209/421/130 206/415/130 202/407/130 198/399/130 194/391/130 190/383/130 189/382/130 193/390/130 197/398/130 201/406/130 205/414/130 210/424/130 214/432/130 218/440/130 222/448/130 225/454/130 229/462/130 233/470/130 238/480/130 242/488/130 245/494/130 249/502/130 254/512/130 258/520/130 261/526/130 265/534/130 269/542/130 273/550/130 278/560/130 282/568/130 286/576/130 290/584/130 293/590/130 297/598/130 301/606/130 305/614/130 309/622/130 313/630/130 318/640/130 322/648/130 326/656/130 329/662/130 334/672/130 337/678/130 341/686/130 345/694/130 349/702/130 353/710/130 357/718/130 361/726/130 366/736/130 369/742/130 373/750/130 378/760/130 382/768/130 386/776/130 390/784/130 393/790/130 398/800/130 402/808/130 406/816/130 410/824/130 414/832/130 418/840/130 422/848/130 426/856/130 430/864/130 434/872/130 437/878/130 442/888/130 446/896/130 450/904/130 454/912/130 458/920/130 462/928/130 465/934/130 469/942/130 474/952/130 477/958/130 481/966/130 485/974/130 489/982/130 493/990/130 498/1000/130 501/1006/130 506/1016/130
f 62/127/130 61/126/130 65/134/130 70/144/130 74/152/130 78/160/130 82/168/130 86/176/130 90/184/130 94/192/130 98/200/130 102/208/130 106/216/130 109/222/130 113/230/130 117/238/130 121/246/130 125/254/130 130/264/130 134/272/130 138/280/130 142/288/130 146/296/130 150/304/130 154/312/130 158/320/130 162/328/130 165/334/130 169/342/130 173/350/130 177/358/130 181/366/130 185/374/130 189/382/130 190/383/130 186/375/130 182/367/130 178/359/130 174/351/130 170/343/130 166/335/130 161/325/130 157/317/130 153/309/130 149/301/130 145/293/130 141/285/130 137/277/130 133/269/130 129/261/130 126/255/130 122/247/130 118/239/130 114/231/130 110/223/130 105/213/130 101/205/130 97/197/130 93/189/130 89/181/130 85/173/130 81/165/130 77/157/130 73/149/130 69/141/130 66/135/130
f 4/11/65 2/5/65 6/16/65 8/20/65
f 8/20/66 6/16/66 10/24/66 12/28/66
f 12/28/67 10/24/67 14/32/67 16/36/67
f 16/36/68 14/32/68 18/40/68 19/42/68
f 22/48/69 24/52/69 19/42/69 18/40/69
f 24/52/70 22/48/70 26/56/70 28/60/70
f 28/60/71 26/56/71 29/62/71 31/66/71
f 31/66/72 29/62/72 33/70/72 35/74/72
f 35/74/73 33/70/73 37/78/73 39/82/73
f 39/82/74 37/78/74 41/86/74 43/90/74
f 43/90/75 41/86/75 45/94/75 47/98/75
f 47/98/76 45/94/76 49/102/76 51/106/76
f 51/106/77 49/102/77 54/112/77 55/114/77
f 55/114/78 54/112/78 58/120/78 60/124/78
f 60/124/79 58/120/79 62/128/79 63/130/79
f 63/130/80 62/128/80 66/136/80 67/138/80
f 71/146/81 67/138/81 66/136/81 69/142/81
f 75/154/82 71/146/82 69/142/82 73/150/82
f 79/162/83 75/154/83 73/150/83 77/158/83
f 83/170/84 79/162/84 77/158/84 81/166/84
f 87/178/85 83/170/85 81/166/85 85/174/85
f 91/186/86 87/178/86 85/174/86 89/182/86
f 95/194/87 91/186/87 89/182/87 93/190/87
f 99/202/88 95/194/88 93/190/88 97/198/88
f 103/210/89 99/202/89 97/198/89 101/206/89
f 107/218/90 103/210/90 101/206/90 105/214/90
f 112/228/91 107/218/91 105/214/91 110/224/91
f 116/236/92 112/228/92 110/224/92 114/232/92
f 114/232/93 118/240/93 120/244/93 116/236/93
f 124/252/94 120/244/94 118/240/94 122/248/94
f 128/260/95 124/252/95 122/248/95 126/256/95
f 131/266/96 128/260/96 126/256/96 129/262/96
f 135/274/97 131/266/97 129/262/97 133/270/97
f 139/282/98 135/274/98 133/270/98 137/278/98
f 143/290/99 139/282/99 137/278/99 141/286/99
f 147/298/100 143/290/100 141/286/100 145/294/100
f 152/308/101 147/298/101 145/294/101 149/302/101
f 155/314/102 152/308/102 149/302/102 153/310/102
f 159/322/103 155/314/103 153/310/103 157/318/103
f 157/318/104 161/326/104 163/330/104 159/322/104
f 167/338/105 163/330/105 161/326/105 166/336/105
f 172/348/106 167/338/106 166/336/106 170/344/106
f 175/354/107 172/348/107 170/344/107 174/352/107
f 180/364/108 175/354/108 174/352/108 178/360/108
f 184/372/109 180/364/109 178/360/109 182/368/109
f 187/378/110 184/372/110 182/368/110 186/376/110
f 192/388/111 187/378/111 186/376/111 190/384/111
f 196/396/112 192/388/112 190/384/112 194/392/112
f 200/404/113 196/396/113 194/392/113 198/400/113
f 203/410/114 200/404/114 198/400/114 202/408/114
f 208/420/115 203/410/115 202/408/115 206/416/115
f 212/428/116 208/420/116 206/416/116 209/422/116
f 216/436/117 212/428/117 209/422/117 213/430/117
f 220/444/118 216/436/118 213/430/118 217/438/118
f 224/452/119 220/444/119 217/438/119 221/446/119
f 228/460/120 224/452/120 221/446/120 226/456/120
f 232/468/121 228/460/121 226/456/121 230/464/121
f 236/476/122 232/468/122 230/464/122 234/472/122
f 240/484/123 236/476/123 234/472/123 237/478/123
f 243/490/124 240/484/124 237/478/124 241/486/124
f 241/486/125 246/496/125 248/500/125 243/490/125
f 251/506/126 248/500/126 246/496/126 250/504/126
f 255/514/128 251/506/128 250/504/128 253/510/128
f 259/522/129 255/514/129 253/510/129 257/518/129
f 263/530/1 259/522/1 257/518/1 262/528/1
f 262/528/2 266/536/2 268/540/2 263/530/2
f 272/548/3 268/540/3 266/536/3 270/544/3
f 276/556/4 272/548/4 270/544/4 274/552/4
f 280/564/5 276/556/5 274/552/5 277/558/5
f 283/570/6 280/564/6 277/558/6 281/566/6
f 287/578/7 283/570/7 281/566/7 285/574/7
f 285/574/8 289/582/8 292/588/8 287/578/8
f 296/596/9 292/588/9 289/582/9 294/592/9
f 300/604/10 296/596/10 294/592/10 298/600/10
f 304/612/11 300/604/11 298/600/11 302/608/11
f 308/620/12 304/612/12 302/608/12 306/616/12
f 312/628/13 308/620/13 306/616/13 310/624/13
f 316/636/14 312/628/14 310/624/14 314/632/14
f 319/642/15 316/636/15 314/632/15 317/638/15
f 324/652/16 319/642/16 317/638/16 321/646/16
f 324/652/17 321/646/17 325/654/17 327/658/17
f 327/658/18 325/654/18 330/664/18 331/666/18
f 331/666/19 330/664/19 333/670/19 336/676/19
f 336/676/20 333/670/20 338/680/20 339/682/20
f 339/682/21 338/680/21 342/688/21 343/690/21
f 343/690/22 342/688/22 346/696/22 347/698/22
f 347/698/23 346/696/23 350/704/23 352/708/23
f 352/708/24 350/704/24 354/712/24 355/714/24
f 355/714/25 354/712/25 358/720/25 359/722/25
f 362/728/26 364/732/26 359/722/26 358/720/26
f 364/732/27 362/728/27 365/734/27 367/738/27
f 367/738/28 365/734/28 370/744/28 372/748/28
f 372/748/29 370/744/29 374/752/29 376/756/29
f 376/756/30 374/752/30 377/758/30 380/764/30
f 380/764/31 377/758/31 381/766/31 384/772/31
f 384/772/32 381/766/32 385/774/32 387/778/32
f 387/778/33 385/774/33 389/782/33 392/788/33
f 392/788/34 389/782/34 394/792/34 395/794/34
f 395/794/35 394/792/35 397/798/35 400/804/35
f 400/804/36 397/798/36 401/806/36 404/812/36
f 405/814/37 407/818/37 404/812/37 401/806/37
f 407/818/38 405/814/38 409/822/38 411/826/38
f 411/826/39 409/822/39 413/830/39 415/834/39
f 415/834/40 413/830/40 417/838/40 419/842/40
f 419/842/41 417/838/41 421/846/41 423/850/41
f 423/850/42 421/846/42 425/854/42 427/858/42
f 427/858/43 425/854/43 429/862/43 431/866/43
f 431/866/44 429/862/44 433/870/44 435/874/44
f 435/874/45 433/870/45 438/880/45 439/882/45
f 439/882/46 438/880/46 441/886/46 443/890/46
f 443/890/47 441/886/47 445/894/47 448/900/47
f 448/900/48 445/894/48 449/902/48 451/906/48
f 451/906/49 449/902/49 453/910/49 455/914/49
f 455/914/50 453/910/50 457/918/50 460/924/50
f 460/924/51 457/918/51 461/926/51 463/930/51
f 463/930/52 461/926/52 466/936/52 467/938/52
f 467/938/53 466/936/53 470/944/53 471/946/53
f 471/946/54 470/944/54 473/950/54 475/954/54
f 475/954/55 473/950/55 478/960/55 480/964/55
f 480/964/56 478/960/56 482/968/56 484/972/56
f 484/972/57 482/968/57 486/976/57 488/980/57
f 490/984/58 492/988/58 488/980/58 486/976/58
f 492/988/59 490/984/59 494/992/59 496/996/59
f 496/996/60 494/992/60 497/998/60 500/1004/60
f 500/1004/61 497/998/61 502/1008/61 503/1010/61
f 503/1010/62 502/1008/62 505/1014/62 508/1020/62
f 508/1020/63 505/1014/63 510/1024/63 512/1028/63
f 2/6/64 4/12/64 512/1028/64 510/1024/64
